<svg width="538" height="408" viewBox="0 0 538 408" fill="none" xmlns="http://www.w3.org/2000/svg">
<g filter="url(#filter0_ii_2477_6506)">
<path d="M427.395 363.917C431.829 378.972 444.363 390.072 456.761 394.205C482.733 402.862 512.359 400.026 535.43 393.645L537.562 401.355C513.633 407.974 482.259 411.137 454.231 401.795C439.629 396.927 424.975 384.013 419.721 366.178C416.904 356.614 416.854 345.884 420.702 334.5L428.65 336C424.9 346.413 425.023 355.863 427.395 363.917Z" fill="#C2C2C2"/>
</g>
<g filter="url(#filter1_ii_2477_6506)">
<path d="M450.554 218.566L450.555 218.567C456.574 225.876 465.164 236.307 468.612 249.321C472.93 265.619 469.216 285.256 446.997 308.25C437.575 318.001 431.771 327.334 428.65 336L420.702 334.5C424.15 324.301 430.726 313.575 441.244 302.691C462.024 281.185 464.31 264.321 460.879 251.37C457.926 240.226 450.734 231.442 444.716 224.091C443.386 222.467 442.114 220.913 440.957 219.419C436.039 213.066 426.935 206.341 415 202.91V194.628C429.634 198.307 441.022 206.435 447.283 214.522C448.226 215.739 449.337 217.089 450.554 218.566Z" fill="#C2C2C2"/>
</g>
<g filter="url(#filter2_ii_2477_6506)">
<path d="M294.5 224.252C315.974 223.201 337.767 216.214 357.588 204.525C378.975 191.912 398.941 190.591 415 194.628V202.91C400.56 198.758 381.977 199.429 361.652 211.416C340.805 223.71 317.577 231.194 294.5 232.262V224.252Z" fill="#C2C2C2"/>
</g>
<g filter="url(#filter3_ii_2477_6506)">
<path d="M213.119 168.361C213.589 185.637 220.056 200.838 237.624 211.009C255.109 221.131 274.669 225.222 294.5 224.252V232.262C273.439 233.236 252.503 228.867 233.616 217.932C213.184 206.103 205.652 188.054 205.122 168.579L213.119 168.361Z" fill="#C2C2C2"/>
</g>
<g filter="url(#filter4_ii_2477_6506)">
<path d="M231.674 32.7335C236.326 40.6134 238.295 49.2853 238.494 58.2564C238.889 76.017 232.339 95.445 225.348 113.42C218.392 131.307 212.641 150.815 213.119 168.361L205.122 168.579C204.599 149.375 210.848 128.634 217.892 110.521C224.902 92.4956 230.851 74.4235 230.496 58.4342C230.321 50.5303 228.601 43.2647 224.785 36.8008L231.674 32.7335Z" fill="#C2C2C2"/>
</g>
<g filter="url(#filter5_ii_2477_6506)">
<path d="M132.026 8.76805C104.142 11.1686 76.2472 19.0459 56.6277 30.43L52.6127 23.5105C73.4931 11.3947 102.598 3.27198 131.34 0.797538C160.012 -1.67099 189.039 1.42177 209.517 12.4484C219.809 17.9908 227.016 24.8434 231.674 32.7335L224.785 36.8008C220.975 30.3472 214.931 24.4498 205.724 19.4922C187.202 9.51882 159.978 6.36158 132.026 8.76805Z" fill="#C2C2C2"/>
</g>
<g filter="url(#filter6_ii_2477_6506)">
<path d="M56.6277 30.43C17.9074 52.8973 2.76647 99.5314 9.56697 140.82L1.67333 142.12C-5.52617 98.4091 10.3329 48.0432 52.6126 23.5105L56.6277 30.43Z" fill="#C2C2C2"/>
</g>
<g filter="url(#filter7_ii_2477_6506)">
<path d="M9.56699 140.82C12.8066 160.489 26.8738 175.538 43.5749 186.57C60.2279 197.571 78.912 204.173 90.1299 207.1L88.1105 214.841C76.3283 211.767 56.7624 204.87 39.1654 193.245C21.6165 181.653 5.43373 164.951 1.67334 142.12L9.56699 140.82Z" fill="#C2C2C2"/>
</g>
<g filter="url(#filter8_ii_2477_6506)">
<path d="M90.1299 207.1C113.865 213.292 140.954 228.167 164.886 251.081C177.546 263.202 186.253 284.693 186.057 306.319L178.058 306.247C178.237 286.497 170.195 267.239 159.354 256.86C136.287 234.774 110.375 220.649 88.1105 214.841L90.1299 207.1Z" fill="#C2C2C2"/>
</g>
<g filter="url(#filter9_ii_2477_6506)">
<path d="M186.057 306.319C185.86 328.154 176.557 350.637 152.563 363.967C116.033 384.261 63.9366 397.895 44.2027 401.437L42.7894 393.563C62.0555 390.105 113.207 376.68 148.678 356.974C169.683 345.304 177.881 325.786 178.058 306.247L186.057 306.319Z" fill="#C2C2C2"/>
</g>
<defs>
<filter id="filter0_ii_2477_6506" x="417.7" y="334.5" width="119.862" height="73.135" filterUnits="userSpaceOnUse" color-interpolation-filters="sRGB">
<feFlood flood-opacity="0" result="BackgroundImageFix"/>
<feBlend mode="normal" in="SourceGraphic" in2="BackgroundImageFix" result="shape"/>
<feColorMatrix in="SourceAlpha" type="matrix" values="0 0 0 0 0 0 0 0 0 0 0 0 0 0 0 0 0 0 127 0" result="hardAlpha"/>
<feOffset dy="-2"/>
<feComposite in2="hardAlpha" operator="arithmetic" k2="-1" k3="1"/>
<feColorMatrix type="matrix" values="0 0 0 0 0.704167 0 0 0 0 0.704167 0 0 0 0 0.704167 0 0 0 1 0"/>
<feBlend mode="normal" in2="shape" result="effect1_innerShadow_2477_6506"/>
<feColorMatrix in="SourceAlpha" type="matrix" values="0 0 0 0 0 0 0 0 0 0 0 0 0 0 0 0 0 0 127 0" result="hardAlpha"/>
<feOffset dy="2"/>
<feComposite in2="hardAlpha" operator="arithmetic" k2="-1" k3="1"/>
<feColorMatrix type="matrix" values="0 0 0 0 0.808333 0 0 0 0 0.808333 0 0 0 0 0.808333 0 0 0 1 0"/>
<feBlend mode="normal" in2="effect1_innerShadow_2477_6506" result="effect2_innerShadow_2477_6506"/>
</filter>
<filter id="filter1_ii_2477_6506" x="415" y="194.628" width="55.1895" height="141.372" filterUnits="userSpaceOnUse" color-interpolation-filters="sRGB">
<feFlood flood-opacity="0" result="BackgroundImageFix"/>
<feBlend mode="normal" in="SourceGraphic" in2="BackgroundImageFix" result="shape"/>
<feColorMatrix in="SourceAlpha" type="matrix" values="0 0 0 0 0 0 0 0 0 0 0 0 0 0 0 0 0 0 127 0" result="hardAlpha"/>
<feOffset dy="-2"/>
<feComposite in2="hardAlpha" operator="arithmetic" k2="-1" k3="1"/>
<feColorMatrix type="matrix" values="0 0 0 0 0.704167 0 0 0 0 0.704167 0 0 0 0 0.704167 0 0 0 1 0"/>
<feBlend mode="normal" in2="shape" result="effect1_innerShadow_2477_6506"/>
<feColorMatrix in="SourceAlpha" type="matrix" values="0 0 0 0 0 0 0 0 0 0 0 0 0 0 0 0 0 0 127 0" result="hardAlpha"/>
<feOffset dy="2"/>
<feComposite in2="hardAlpha" operator="arithmetic" k2="-1" k3="1"/>
<feColorMatrix type="matrix" values="0 0 0 0 0.808333 0 0 0 0 0.808333 0 0 0 0 0.808333 0 0 0 1 0"/>
<feBlend mode="normal" in2="effect1_innerShadow_2477_6506" result="effect2_innerShadow_2477_6506"/>
</filter>
<filter id="filter2_ii_2477_6506" x="294.5" y="192.593" width="120.5" height="39.6689" filterUnits="userSpaceOnUse" color-interpolation-filters="sRGB">
<feFlood flood-opacity="0" result="BackgroundImageFix"/>
<feBlend mode="normal" in="SourceGraphic" in2="BackgroundImageFix" result="shape"/>
<feColorMatrix in="SourceAlpha" type="matrix" values="0 0 0 0 0 0 0 0 0 0 0 0 0 0 0 0 0 0 127 0" result="hardAlpha"/>
<feOffset dy="-2"/>
<feComposite in2="hardAlpha" operator="arithmetic" k2="-1" k3="1"/>
<feColorMatrix type="matrix" values="0 0 0 0 0.704167 0 0 0 0 0.704167 0 0 0 0 0.704167 0 0 0 1 0"/>
<feBlend mode="normal" in2="shape" result="effect1_innerShadow_2477_6506"/>
<feColorMatrix in="SourceAlpha" type="matrix" values="0 0 0 0 0 0 0 0 0 0 0 0 0 0 0 0 0 0 127 0" result="hardAlpha"/>
<feOffset dy="2"/>
<feComposite in2="hardAlpha" operator="arithmetic" k2="-1" k3="1"/>
<feColorMatrix type="matrix" values="0 0 0 0 0.808333 0 0 0 0 0.808333 0 0 0 0 0.808333 0 0 0 1 0"/>
<feBlend mode="normal" in2="effect1_innerShadow_2477_6506" result="effect2_innerShadow_2477_6506"/>
</filter>
<filter id="filter3_ii_2477_6506" x="205.122" y="168.361" width="89.3784" height="64.0328" filterUnits="userSpaceOnUse" color-interpolation-filters="sRGB">
<feFlood flood-opacity="0" result="BackgroundImageFix"/>
<feBlend mode="normal" in="SourceGraphic" in2="BackgroundImageFix" result="shape"/>
<feColorMatrix in="SourceAlpha" type="matrix" values="0 0 0 0 0 0 0 0 0 0 0 0 0 0 0 0 0 0 127 0" result="hardAlpha"/>
<feOffset dy="-2"/>
<feComposite in2="hardAlpha" operator="arithmetic" k2="-1" k3="1"/>
<feColorMatrix type="matrix" values="0 0 0 0 0.704167 0 0 0 0 0.704167 0 0 0 0 0.704167 0 0 0 1 0"/>
<feBlend mode="normal" in2="shape" result="effect1_innerShadow_2477_6506"/>
<feColorMatrix in="SourceAlpha" type="matrix" values="0 0 0 0 0 0 0 0 0 0 0 0 0 0 0 0 0 0 127 0" result="hardAlpha"/>
<feOffset dy="2"/>
<feComposite in2="hardAlpha" operator="arithmetic" k2="-1" k3="1"/>
<feColorMatrix type="matrix" values="0 0 0 0 0.808333 0 0 0 0 0.808333 0 0 0 0 0.808333 0 0 0 1 0"/>
<feBlend mode="normal" in2="effect1_innerShadow_2477_6506" result="effect2_innerShadow_2477_6506"/>
</filter>
<filter id="filter4_ii_2477_6506" x="205.091" y="32.7335" width="33.42" height="135.846" filterUnits="userSpaceOnUse" color-interpolation-filters="sRGB">
<feFlood flood-opacity="0" result="BackgroundImageFix"/>
<feBlend mode="normal" in="SourceGraphic" in2="BackgroundImageFix" result="shape"/>
<feColorMatrix in="SourceAlpha" type="matrix" values="0 0 0 0 0 0 0 0 0 0 0 0 0 0 0 0 0 0 127 0" result="hardAlpha"/>
<feOffset dy="-2"/>
<feComposite in2="hardAlpha" operator="arithmetic" k2="-1" k3="1"/>
<feColorMatrix type="matrix" values="0 0 0 0 0.704167 0 0 0 0 0.704167 0 0 0 0 0.704167 0 0 0 1 0"/>
<feBlend mode="normal" in2="shape" result="effect1_innerShadow_2477_6506"/>
<feColorMatrix in="SourceAlpha" type="matrix" values="0 0 0 0 0 0 0 0 0 0 0 0 0 0 0 0 0 0 127 0" result="hardAlpha"/>
<feOffset dy="2"/>
<feComposite in2="hardAlpha" operator="arithmetic" k2="-1" k3="1"/>
<feColorMatrix type="matrix" values="0 0 0 0 0.808333 0 0 0 0 0.808333 0 0 0 0 0.808333 0 0 0 1 0"/>
<feBlend mode="normal" in2="effect1_innerShadow_2477_6506" result="effect2_innerShadow_2477_6506"/>
</filter>
<filter id="filter5_ii_2477_6506" x="52.6127" y="0" width="179.061" height="36.8008" filterUnits="userSpaceOnUse" color-interpolation-filters="sRGB">
<feFlood flood-opacity="0" result="BackgroundImageFix"/>
<feBlend mode="normal" in="SourceGraphic" in2="BackgroundImageFix" result="shape"/>
<feColorMatrix in="SourceAlpha" type="matrix" values="0 0 0 0 0 0 0 0 0 0 0 0 0 0 0 0 0 0 127 0" result="hardAlpha"/>
<feOffset dy="-2"/>
<feComposite in2="hardAlpha" operator="arithmetic" k2="-1" k3="1"/>
<feColorMatrix type="matrix" values="0 0 0 0 0.704167 0 0 0 0 0.704167 0 0 0 0 0.704167 0 0 0 1 0"/>
<feBlend mode="normal" in2="shape" result="effect1_innerShadow_2477_6506"/>
<feColorMatrix in="SourceAlpha" type="matrix" values="0 0 0 0 0 0 0 0 0 0 0 0 0 0 0 0 0 0 127 0" result="hardAlpha"/>
<feOffset dy="2"/>
<feComposite in2="hardAlpha" operator="arithmetic" k2="-1" k3="1"/>
<feColorMatrix type="matrix" values="0 0 0 0 0.808333 0 0 0 0 0.808333 0 0 0 0 0.808333 0 0 0 1 0"/>
<feBlend mode="normal" in2="effect1_innerShadow_2477_6506" result="effect2_innerShadow_2477_6506"/>
</filter>
<filter id="filter6_ii_2477_6506" x="0" y="23.5105" width="56.6277" height="118.61" filterUnits="userSpaceOnUse" color-interpolation-filters="sRGB">
<feFlood flood-opacity="0" result="BackgroundImageFix"/>
<feBlend mode="normal" in="SourceGraphic" in2="BackgroundImageFix" result="shape"/>
<feColorMatrix in="SourceAlpha" type="matrix" values="0 0 0 0 0 0 0 0 0 0 0 0 0 0 0 0 0 0 127 0" result="hardAlpha"/>
<feOffset dy="-2"/>
<feComposite in2="hardAlpha" operator="arithmetic" k2="-1" k3="1"/>
<feColorMatrix type="matrix" values="0 0 0 0 0.704167 0 0 0 0 0.704167 0 0 0 0 0.704167 0 0 0 1 0"/>
<feBlend mode="normal" in2="shape" result="effect1_innerShadow_2477_6506"/>
<feColorMatrix in="SourceAlpha" type="matrix" values="0 0 0 0 0 0 0 0 0 0 0 0 0 0 0 0 0 0 127 0" result="hardAlpha"/>
<feOffset dy="2"/>
<feComposite in2="hardAlpha" operator="arithmetic" k2="-1" k3="1"/>
<feColorMatrix type="matrix" values="0 0 0 0 0.808333 0 0 0 0 0.808333 0 0 0 0 0.808333 0 0 0 1 0"/>
<feBlend mode="normal" in2="effect1_innerShadow_2477_6506" result="effect2_innerShadow_2477_6506"/>
</filter>
<filter id="filter7_ii_2477_6506" x="1.67334" y="140.82" width="88.4565" height="74.0205" filterUnits="userSpaceOnUse" color-interpolation-filters="sRGB">
<feFlood flood-opacity="0" result="BackgroundImageFix"/>
<feBlend mode="normal" in="SourceGraphic" in2="BackgroundImageFix" result="shape"/>
<feColorMatrix in="SourceAlpha" type="matrix" values="0 0 0 0 0 0 0 0 0 0 0 0 0 0 0 0 0 0 127 0" result="hardAlpha"/>
<feOffset dy="-2"/>
<feComposite in2="hardAlpha" operator="arithmetic" k2="-1" k3="1"/>
<feColorMatrix type="matrix" values="0 0 0 0 0.704167 0 0 0 0 0.704167 0 0 0 0 0.704167 0 0 0 1 0"/>
<feBlend mode="normal" in2="shape" result="effect1_innerShadow_2477_6506"/>
<feColorMatrix in="SourceAlpha" type="matrix" values="0 0 0 0 0 0 0 0 0 0 0 0 0 0 0 0 0 0 127 0" result="hardAlpha"/>
<feOffset dy="2"/>
<feComposite in2="hardAlpha" operator="arithmetic" k2="-1" k3="1"/>
<feColorMatrix type="matrix" values="0 0 0 0 0.808333 0 0 0 0 0.808333 0 0 0 0 0.808333 0 0 0 1 0"/>
<feBlend mode="normal" in2="effect1_innerShadow_2477_6506" result="effect2_innerShadow_2477_6506"/>
</filter>
<filter id="filter8_ii_2477_6506" x="88.1105" y="207.1" width="97.9503" height="99.2192" filterUnits="userSpaceOnUse" color-interpolation-filters="sRGB">
<feFlood flood-opacity="0" result="BackgroundImageFix"/>
<feBlend mode="normal" in="SourceGraphic" in2="BackgroundImageFix" result="shape"/>
<feColorMatrix in="SourceAlpha" type="matrix" values="0 0 0 0 0 0 0 0 0 0 0 0 0 0 0 0 0 0 127 0" result="hardAlpha"/>
<feOffset dy="-2"/>
<feComposite in2="hardAlpha" operator="arithmetic" k2="-1" k3="1"/>
<feColorMatrix type="matrix" values="0 0 0 0 0.704167 0 0 0 0 0.704167 0 0 0 0 0.704167 0 0 0 1 0"/>
<feBlend mode="normal" in2="shape" result="effect1_innerShadow_2477_6506"/>
<feColorMatrix in="SourceAlpha" type="matrix" values="0 0 0 0 0 0 0 0 0 0 0 0 0 0 0 0 0 0 127 0" result="hardAlpha"/>
<feOffset dy="2"/>
<feComposite in2="hardAlpha" operator="arithmetic" k2="-1" k3="1"/>
<feColorMatrix type="matrix" values="0 0 0 0 0.808333 0 0 0 0 0.808333 0 0 0 0 0.808333 0 0 0 1 0"/>
<feBlend mode="normal" in2="effect1_innerShadow_2477_6506" result="effect2_innerShadow_2477_6506"/>
</filter>
<filter id="filter9_ii_2477_6506" x="42.7894" y="306.247" width="143.268" height="95.1903" filterUnits="userSpaceOnUse" color-interpolation-filters="sRGB">
<feFlood flood-opacity="0" result="BackgroundImageFix"/>
<feBlend mode="normal" in="SourceGraphic" in2="BackgroundImageFix" result="shape"/>
<feColorMatrix in="SourceAlpha" type="matrix" values="0 0 0 0 0 0 0 0 0 0 0 0 0 0 0 0 0 0 127 0" result="hardAlpha"/>
<feOffset dy="-2"/>
<feComposite in2="hardAlpha" operator="arithmetic" k2="-1" k3="1"/>
<feColorMatrix type="matrix" values="0 0 0 0 0.704167 0 0 0 0 0.704167 0 0 0 0 0.704167 0 0 0 1 0"/>
<feBlend mode="normal" in2="shape" result="effect1_innerShadow_2477_6506"/>
<feColorMatrix in="SourceAlpha" type="matrix" values="0 0 0 0 0 0 0 0 0 0 0 0 0 0 0 0 0 0 127 0" result="hardAlpha"/>
<feOffset dy="2"/>
<feComposite in2="hardAlpha" operator="arithmetic" k2="-1" k3="1"/>
<feColorMatrix type="matrix" values="0 0 0 0 0.808333 0 0 0 0 0.808333 0 0 0 0 0.808333 0 0 0 1 0"/>
<feBlend mode="normal" in2="effect1_innerShadow_2477_6506" result="effect2_innerShadow_2477_6506"/>
</filter>
</defs>
</svg>
